<svg enable-background="new 0 0 713.6 713.6" viewBox="0 0 713.6 713.6" xmlns="http://www.w3.org/2000/svg"><path d="m541.8 266.8v-20h-20v-40h-20v-20h-20v-20h-10v-20-20h-20v20h-40v20h-130v-20h-60v-20h-20v-20h-20v20 20h20v20h20v20h60v20h-20v20h-20v60h-50v20h-20v20h30v-20h40v70h-50v20h-20v20h30v-20h40v80h-20v20 20 20h-20v20h-20v20 30h20v-30h20v-20h20v-20h160v20h20v20h20v-20h20v-20h20v-20h20v-20h20v-20-20h20v-20h-20v-170zm-180 50h100v70h-100zm80-130v20h20v90h-100v-70h20v-20h40v-20zm-140 40v-20h40v20h-20v20h-40v-20zm20 210h-40v-170h40zm-60 40h20v-20h40v20h-20v20h-40zm80 20v-20h20v-70h100v90h-20v20h-20v-20z" fill="#292929"/></svg>